<svg width="1280" height="720" xmlns="http://www.w3.org/2000/svg" xmlns:xlink="http://www.w3.org/1999/xlink" overflow="hidden"><defs><filter id="fx0" x="-10%" y="-10%" width="120%" height="120%" filterUnits="userSpaceOnUse" primitiveUnits="userSpaceOnUse"><feComponentTransfer color-interpolation-filters="sRGB"><feFuncR type="discrete" tableValues="1 1"/><feFuncG type="discrete" tableValues="1 1"/><feFuncB type="discrete" tableValues="1 1"/><feFuncA type="linear" slope="0.4" intercept="0"/></feComponentTransfer><feGaussianBlur stdDeviation="4.44444 4.44444"/></filter><filter id="fx1" x="-10%" y="-10%" width="120%" height="120%" filterUnits="userSpaceOnUse" primitiveUnits="userSpaceOnUse"><feComponentTransfer color-interpolation-filters="sRGB"><feFuncR type="discrete" tableValues="0.65098 0.65098"/><feFuncG type="discrete" tableValues="0.65098 0.65098"/><feFuncB type="discrete" tableValues="0.65098 0.65098"/><feFuncA type="linear" slope="0.4" intercept="0"/></feComponentTransfer><feGaussianBlur stdDeviation="6.66667 6.66667"/></filter><filter id="fx2" x="-10%" y="-10%" width="120%" height="120%" filterUnits="userSpaceOnUse" primitiveUnits="userSpaceOnUse"><feComponentTransfer color-interpolation-filters="sRGB"><feFuncR type="discrete" tableValues="1 1"/><feFuncG type="discrete" tableValues="1 1"/><feFuncB type="discrete" tableValues="1 1"/><feFuncA type="linear" slope="0.4" intercept="0"/></feComponentTransfer><feGaussianBlur stdDeviation="4.44444 4.44444"/></filter><filter id="fx3" x="-10%" y="-10%" width="120%" height="120%" filterUnits="userSpaceOnUse" primitiveUnits="userSpaceOnUse"><feComponentTransfer color-interpolation-filters="sRGB"><feFuncR type="discrete" tableValues="0.65098 0.65098"/><feFuncG type="discrete" tableValues="0.65098 0.65098"/><feFuncB type="discrete" tableValues="0.65098 0.65098"/><feFuncA type="linear" slope="0.4" intercept="0"/></feComponentTransfer><feGaussianBlur stdDeviation="6.66667 6.66667"/></filter><filter id="fx4" x="-10%" y="-10%" width="120%" height="120%" filterUnits="userSpaceOnUse" primitiveUnits="userSpaceOnUse"><feComponentTransfer color-interpolation-filters="sRGB"><feFuncR type="discrete" tableValues="1 1"/><feFuncG type="discrete" tableValues="1 1"/><feFuncB type="discrete" tableValues="1 1"/><feFuncA type="linear" slope="0.4" intercept="0"/></feComponentTransfer><feGaussianBlur stdDeviation="4.44444 4.44444"/></filter><filter id="fx5" x="-10%" y="-10%" width="120%" height="120%" filterUnits="userSpaceOnUse" primitiveUnits="userSpaceOnUse"><feComponentTransfer color-interpolation-filters="sRGB"><feFuncR type="discrete" tableValues="0.65098 0.65098"/><feFuncG type="discrete" tableValues="0.65098 0.65098"/><feFuncB type="discrete" tableValues="0.65098 0.65098"/><feFuncA type="linear" slope="0.4" intercept="0"/></feComponentTransfer><feGaussianBlur stdDeviation="6.66667 6.66667"/></filter><filter id="fx6" x="-10%" y="-10%" width="120%" height="120%" filterUnits="userSpaceOnUse" primitiveUnits="userSpaceOnUse"><feComponentTransfer color-interpolation-filters="sRGB"><feFuncR type="discrete" tableValues="1 1"/><feFuncG type="discrete" tableValues="1 1"/><feFuncB type="discrete" tableValues="1 1"/><feFuncA type="linear" slope="0.4" intercept="0"/></feComponentTransfer><feGaussianBlur stdDeviation="4.44444 4.44444"/></filter><filter id="fx7" x="-10%" y="-10%" width="120%" height="120%" filterUnits="userSpaceOnUse" primitiveUnits="userSpaceOnUse"><feComponentTransfer color-interpolation-filters="sRGB"><feFuncR type="discrete" tableValues="0.65098 0.65098"/><feFuncG type="discrete" tableValues="0.65098 0.65098"/><feFuncB type="discrete" tableValues="0.65098 0.65098"/><feFuncA type="linear" slope="0.4" intercept="0"/></feComponentTransfer><feGaussianBlur stdDeviation="6.66667 6.66667"/></filter><filter id="fx8" x="-10%" y="-10%" width="120%" height="120%" filterUnits="userSpaceOnUse" primitiveUnits="userSpaceOnUse"><feComponentTransfer color-interpolation-filters="sRGB"><feFuncR type="discrete" tableValues="1 1"/><feFuncG type="discrete" tableValues="1 1"/><feFuncB type="discrete" tableValues="1 1"/><feFuncA type="linear" slope="0.4" intercept="0"/></feComponentTransfer><feGaussianBlur stdDeviation="4.44444 4.44444"/></filter><filter id="fx9" x="-10%" y="-10%" width="120%" height="120%" filterUnits="userSpaceOnUse" primitiveUnits="userSpaceOnUse"><feComponentTransfer color-interpolation-filters="sRGB"><feFuncR type="discrete" tableValues="0.65098 0.65098"/><feFuncG type="discrete" tableValues="0.65098 0.65098"/><feFuncB type="discrete" tableValues="0.65098 0.65098"/><feFuncA type="linear" slope="0.4" intercept="0"/></feComponentTransfer><feGaussianBlur stdDeviation="6.66667 6.66667"/></filter><filter id="fx10" x="-10%" y="-10%" width="120%" height="120%" filterUnits="userSpaceOnUse" primitiveUnits="userSpaceOnUse"><feComponentTransfer color-interpolation-filters="sRGB"><feFuncR type="discrete" tableValues="1 1"/><feFuncG type="discrete" tableValues="1 1"/><feFuncB type="discrete" tableValues="1 1"/><feFuncA type="linear" slope="0.4" intercept="0"/></feComponentTransfer><feGaussianBlur stdDeviation="4.44444 4.44444"/></filter><filter id="fx11" x="-10%" y="-10%" width="120%" height="120%" filterUnits="userSpaceOnUse" primitiveUnits="userSpaceOnUse"><feComponentTransfer color-interpolation-filters="sRGB"><feFuncR type="discrete" tableValues="0.65098 0.65098"/><feFuncG type="discrete" tableValues="0.65098 0.65098"/><feFuncB type="discrete" tableValues="0.65098 0.65098"/><feFuncA type="linear" slope="0.4" intercept="0"/></feComponentTransfer><feGaussianBlur stdDeviation="6.66667 6.66667"/></filter><filter id="fx12" x="-10%" y="-10%" width="120%" height="120%" filterUnits="userSpaceOnUse" primitiveUnits="userSpaceOnUse"><feComponentTransfer color-interpolation-filters="sRGB"><feFuncR type="discrete" tableValues="1 1"/><feFuncG type="discrete" tableValues="1 1"/><feFuncB type="discrete" tableValues="1 1"/><feFuncA type="linear" slope="0.4" intercept="0"/></feComponentTransfer><feGaussianBlur stdDeviation="4.44444 4.44444"/></filter><filter id="fx13" x="-10%" y="-10%" width="120%" height="120%" filterUnits="userSpaceOnUse" primitiveUnits="userSpaceOnUse"><feComponentTransfer color-interpolation-filters="sRGB"><feFuncR type="discrete" tableValues="0.65098 0.65098"/><feFuncG type="discrete" tableValues="0.65098 0.65098"/><feFuncB type="discrete" tableValues="0.65098 0.65098"/><feFuncA type="linear" slope="0.4" intercept="0"/></feComponentTransfer><feGaussianBlur stdDeviation="6.66667 6.66667"/></filter><filter id="fx14" x="-10%" y="-10%" width="120%" height="120%" filterUnits="userSpaceOnUse" primitiveUnits="userSpaceOnUse"><feComponentTransfer color-interpolation-filters="sRGB"><feFuncR type="discrete" tableValues="1 1"/><feFuncG type="discrete" tableValues="1 1"/><feFuncB type="discrete" tableValues="1 1"/><feFuncA type="linear" slope="0.4" intercept="0"/></feComponentTransfer><feGaussianBlur stdDeviation="4.44444 4.44444"/></filter><filter id="fx15" x="-10%" y="-10%" width="120%" height="120%" filterUnits="userSpaceOnUse" primitiveUnits="userSpaceOnUse"><feComponentTransfer color-interpolation-filters="sRGB"><feFuncR type="discrete" tableValues="0.65098 0.65098"/><feFuncG type="discrete" tableValues="0.65098 0.65098"/><feFuncB type="discrete" tableValues="0.65098 0.65098"/><feFuncA type="linear" slope="0.4" intercept="0"/></feComponentTransfer><feGaussianBlur stdDeviation="6.66667 6.66667"/></filter><filter id="fx16" x="-10%" y="-10%" width="120%" height="120%" filterUnits="userSpaceOnUse" primitiveUnits="userSpaceOnUse"><feComponentTransfer color-interpolation-filters="sRGB"><feFuncR type="discrete" tableValues="1 1"/><feFuncG type="discrete" tableValues="1 1"/><feFuncB type="discrete" tableValues="1 1"/><feFuncA type="linear" slope="0.4" intercept="0"/></feComponentTransfer><feGaussianBlur stdDeviation="4.44444 4.44444"/></filter><filter id="fx17" x="-10%" y="-10%" width="120%" height="120%" filterUnits="userSpaceOnUse" primitiveUnits="userSpaceOnUse"><feComponentTransfer color-interpolation-filters="sRGB"><feFuncR type="discrete" tableValues="0.65098 0.65098"/><feFuncG type="discrete" tableValues="0.65098 0.65098"/><feFuncB type="discrete" tableValues="0.65098 0.65098"/><feFuncA type="linear" slope="0.4" intercept="0"/></feComponentTransfer><feGaussianBlur stdDeviation="6.66667 6.66667"/></filter><linearGradient x1="617.25" y1="120.75" x2="777.75" y2="281.25" gradientUnits="userSpaceOnUse" spreadMethod="reflect" id="fill18"><stop offset="0" stop-color="#EDEEF3"/><stop offset="0.0588235" stop-color="#EEEFF4"/><stop offset="0.117647" stop-color="#F0F1F5"/><stop offset="0.176471" stop-color="#F2F3F6"/><stop offset="0.235294" stop-color="#F4F4F7"/><stop offset="0.294118" stop-color="#F5F6F8"/><stop offset="0.352941" stop-color="#F7F7F9"/><stop offset="0.411765" stop-color="#F8F8FA"/><stop offset="0.470588" stop-color="#F9F9FB"/><stop offset="0.529412" stop-color="#FAFAFC"/><stop offset="0.588235" stop-color="#FBFBFC"/><stop offset="0.647059" stop-color="#FCFCFD"/><stop offset="0.705882" stop-color="#FDFDFD"/><stop offset="0.764706" stop-color="#FDFDFE"/><stop offset="0.823529" stop-color="#FEFEFE"/><stop offset="0.882353" stop-color="#FEFEFE"/><stop offset="0.941176" stop-color="#FEFEFE"/><stop offset="1" stop-color="#FFFFFF"/></linearGradient><linearGradient x1="834.25" y1="120.75" x2="994.75" y2="281.25" gradientUnits="userSpaceOnUse" spreadMethod="reflect" id="fill19"><stop offset="0" stop-color="#EDEEF3"/><stop offset="0.0588235" stop-color="#EEEFF4"/><stop offset="0.117647" stop-color="#F0F1F5"/><stop offset="0.176471" stop-color="#F2F3F6"/><stop offset="0.235294" stop-color="#F4F4F7"/><stop offset="0.294118" stop-color="#F5F6F8"/><stop offset="0.352941" stop-color="#F7F7F9"/><stop offset="0.411765" stop-color="#F8F8FA"/><stop offset="0.470588" stop-color="#F9F9FB"/><stop offset="0.529412" stop-color="#FAFAFC"/><stop offset="0.588235" stop-color="#FBFBFC"/><stop offset="0.647059" stop-color="#FCFCFD"/><stop offset="0.705882" stop-color="#FDFDFD"/><stop offset="0.764706" stop-color="#FDFDFE"/><stop offset="0.823529" stop-color="#FEFEFE"/><stop offset="0.882353" stop-color="#FEFEFE"/><stop offset="0.941176" stop-color="#FEFEFE"/><stop offset="1" stop-color="#FFFFFF"/></linearGradient><linearGradient x1="1050.25" y1="120.75" x2="1210.75" y2="281.25" gradientUnits="userSpaceOnUse" spreadMethod="reflect" id="fill20"><stop offset="0" stop-color="#EDEEF3"/><stop offset="0.0588235" stop-color="#EEEFF4"/><stop offset="0.117647" stop-color="#F0F1F5"/><stop offset="0.176471" stop-color="#F2F3F6"/><stop offset="0.235294" stop-color="#F4F4F7"/><stop offset="0.294118" stop-color="#F5F6F8"/><stop offset="0.352941" stop-color="#F7F7F9"/><stop offset="0.411765" stop-color="#F8F8FA"/><stop offset="0.470588" stop-color="#F9F9FB"/><stop offset="0.529412" stop-color="#FAFAFC"/><stop offset="0.588235" stop-color="#FBFBFC"/><stop offset="0.647059" stop-color="#FCFCFD"/><stop offset="0.705882" stop-color="#FDFDFD"/><stop offset="0.764706" stop-color="#FDFDFE"/><stop offset="0.823529" stop-color="#FEFEFE"/><stop offset="0.882353" stop-color="#FEFEFE"/><stop offset="0.941176" stop-color="#FEFEFE"/><stop offset="1" stop-color="#FFFFFF"/></linearGradient><linearGradient x1="617.25" y1="307.75" x2="777.75" y2="468.25" gradientUnits="userSpaceOnUse" spreadMethod="reflect" id="fill21"><stop offset="0" stop-color="#EDEEF3"/><stop offset="0.0588235" stop-color="#EEEFF4"/><stop offset="0.117647" stop-color="#F0F1F5"/><stop offset="0.176471" stop-color="#F2F3F6"/><stop offset="0.235294" stop-color="#F4F4F7"/><stop offset="0.294118" stop-color="#F5F6F8"/><stop offset="0.352941" stop-color="#F7F7F9"/><stop offset="0.411765" stop-color="#F8F8FA"/><stop offset="0.470588" stop-color="#F9F9FB"/><stop offset="0.529412" stop-color="#FAFAFC"/><stop offset="0.588235" stop-color="#FBFBFC"/><stop offset="0.647059" stop-color="#FCFCFD"/><stop offset="0.705882" stop-color="#FDFDFD"/><stop offset="0.764706" stop-color="#FDFDFE"/><stop offset="0.823529" stop-color="#FEFEFE"/><stop offset="0.882353" stop-color="#FEFEFE"/><stop offset="0.941176" stop-color="#FEFEFE"/><stop offset="1" stop-color="#FFFFFF"/></linearGradient><linearGradient x1="834.25" y1="307.75" x2="994.75" y2="468.25" gradientUnits="userSpaceOnUse" spreadMethod="reflect" id="fill22"><stop offset="0" stop-color="#EDEEF3"/><stop offset="0.0588235" stop-color="#EEEFF4"/><stop offset="0.117647" stop-color="#F0F1F5"/><stop offset="0.176471" stop-color="#F2F3F6"/><stop offset="0.235294" stop-color="#F4F4F7"/><stop offset="0.294118" stop-color="#F5F6F8"/><stop offset="0.352941" stop-color="#F7F7F9"/><stop offset="0.411765" stop-color="#F8F8FA"/><stop offset="0.470588" stop-color="#F9F9FB"/><stop offset="0.529412" stop-color="#FAFAFC"/><stop offset="0.588235" stop-color="#FBFBFC"/><stop offset="0.647059" stop-color="#FCFCFD"/><stop offset="0.705882" stop-color="#FDFDFD"/><stop offset="0.764706" stop-color="#FDFDFE"/><stop offset="0.823529" stop-color="#FEFEFE"/><stop offset="0.882353" stop-color="#FEFEFE"/><stop offset="0.941176" stop-color="#FEFEFE"/><stop offset="1" stop-color="#FFFFFF"/></linearGradient><linearGradient x1="1050.25" y1="307.75" x2="1210.75" y2="468.25" gradientUnits="userSpaceOnUse" spreadMethod="reflect" id="fill23"><stop offset="0" stop-color="#EDEEF3"/><stop offset="0.0588235" stop-color="#EEEFF4"/><stop offset="0.117647" stop-color="#F0F1F5"/><stop offset="0.176471" stop-color="#F2F3F6"/><stop offset="0.235294" stop-color="#F4F4F7"/><stop offset="0.294118" stop-color="#F5F6F8"/><stop offset="0.352941" stop-color="#F7F7F9"/><stop offset="0.411765" stop-color="#F8F8FA"/><stop offset="0.470588" stop-color="#F9F9FB"/><stop offset="0.529412" stop-color="#FAFAFC"/><stop offset="0.588235" stop-color="#FBFBFC"/><stop offset="0.647059" stop-color="#FCFCFD"/><stop offset="0.705882" stop-color="#FDFDFD"/><stop offset="0.764706" stop-color="#FDFDFE"/><stop offset="0.823529" stop-color="#FEFEFE"/><stop offset="0.882353" stop-color="#FEFEFE"/><stop offset="0.941176" stop-color="#FEFEFE"/><stop offset="1" stop-color="#FFFFFF"/></linearGradient><linearGradient x1="617" y1="494" x2="778" y2="655" gradientUnits="userSpaceOnUse" spreadMethod="reflect" id="fill24"><stop offset="0" stop-color="#EDEEF3"/><stop offset="0.0588235" stop-color="#EEEFF4"/><stop offset="0.117647" stop-color="#F0F1F5"/><stop offset="0.176471" stop-color="#F2F3F6"/><stop offset="0.235294" stop-color="#F4F4F7"/><stop offset="0.294118" stop-color="#F5F6F8"/><stop offset="0.352941" stop-color="#F7F7F9"/><stop offset="0.411765" stop-color="#F8F8FA"/><stop offset="0.470588" stop-color="#F9F9FB"/><stop offset="0.529412" stop-color="#FAFAFC"/><stop offset="0.588235" stop-color="#FBFBFC"/><stop offset="0.647059" stop-color="#FCFCFD"/><stop offset="0.705882" stop-color="#FDFDFD"/><stop offset="0.764706" stop-color="#FDFDFE"/><stop offset="0.823529" stop-color="#FEFEFE"/><stop offset="0.882353" stop-color="#FEFEFE"/><stop offset="0.941176" stop-color="#FEFEFE"/><stop offset="1" stop-color="#FFFFFF"/></linearGradient><linearGradient x1="834" y1="494" x2="995" y2="655" gradientUnits="userSpaceOnUse" spreadMethod="reflect" id="fill25"><stop offset="0" stop-color="#EDEEF3"/><stop offset="0.0588235" stop-color="#EEEFF4"/><stop offset="0.117647" stop-color="#F0F1F5"/><stop offset="0.176471" stop-color="#F2F3F6"/><stop offset="0.235294" stop-color="#F4F4F7"/><stop offset="0.294118" stop-color="#F5F6F8"/><stop offset="0.352941" stop-color="#F7F7F9"/><stop offset="0.411765" stop-color="#F8F8FA"/><stop offset="0.470588" stop-color="#F9F9FB"/><stop offset="0.529412" stop-color="#FAFAFC"/><stop offset="0.588235" stop-color="#FBFBFC"/><stop offset="0.647059" stop-color="#FCFCFD"/><stop offset="0.705882" stop-color="#FDFDFD"/><stop offset="0.764706" stop-color="#FDFDFE"/><stop offset="0.823529" stop-color="#FEFEFE"/><stop offset="0.882353" stop-color="#FEFEFE"/><stop offset="0.941176" stop-color="#FEFEFE"/><stop offset="1" stop-color="#FFFFFF"/></linearGradient><linearGradient x1="1050" y1="494" x2="1211" y2="655" gradientUnits="userSpaceOnUse" spreadMethod="reflect" id="fill26"><stop offset="0" stop-color="#EDEEF3"/><stop offset="0.0588235" stop-color="#EEEFF4"/><stop offset="0.117647" stop-color="#F0F1F5"/><stop offset="0.176471" stop-color="#F2F3F6"/><stop offset="0.235294" stop-color="#F4F4F7"/><stop offset="0.294118" stop-color="#F5F6F8"/><stop offset="0.352941" stop-color="#F7F7F9"/><stop offset="0.411765" stop-color="#F8F8FA"/><stop offset="0.470588" stop-color="#F9F9FB"/><stop offset="0.529412" stop-color="#FAFAFC"/><stop offset="0.588235" stop-color="#FBFBFC"/><stop offset="0.647059" stop-color="#FCFCFD"/><stop offset="0.705882" stop-color="#FDFDFD"/><stop offset="0.764706" stop-color="#FDFDFE"/><stop offset="0.823529" stop-color="#FEFEFE"/><stop offset="0.882353" stop-color="#FEFEFE"/><stop offset="0.941176" stop-color="#FEFEFE"/><stop offset="1" stop-color="#FFFFFF"/></linearGradient></defs><g><rect x="0" y="0" width="1280" height="720" fill="#FFFFFF"/><g filter="url(#fx0)" transform="translate(579 111)"><g><path d="M14.5719 36.5723C14.5719 24.4218 24.4218 14.5719 36.5723 14.5719L181.572 14.5719C193.722 14.5719 203.572 24.4218 203.572 36.5723L203.572 124.571C203.572 136.722 193.722 146.572 181.572 146.572L36.5723 146.572C24.4218 146.572 14.5719 136.722 14.5719 124.571Z" fill="#BFBFBF" fill-rule="evenodd"/></g></g><path d="M603 157C603 144.85 612.85 135 625 135L770 135C782.15 135 792 144.85 792 157L792 245C792 257.15 782.15 267 770 267L625 267C612.85 267 603 257.15 603 245Z" fill="#BFBFBF" fill-rule="evenodd"/><g filter="url(#fx1)" transform="translate(596 128)"><g><path d="M21.1422 43.1425C21.1422 30.9921 30.9921 21.1421 43.1425 21.1421L188.142 21.1421C200.292 21.1421 210.142 30.9921 210.142 43.1425L210.142 131.142C210.142 143.292 200.292 153.142 188.142 153.142L43.1425 153.142C30.9921 153.142 21.1422 143.292 21.1422 131.142Z" fill="#FF0000" fill-rule="evenodd"/></g></g><path d="M603 157C603 144.85 612.85 135 625 135L770 135C782.15 135 792 144.85 792 157L792 245C792 257.15 782.15 267 770 267L625 267C612.85 267 603 257.15 603 245Z" fill="url(#fill18)" fill-rule="evenodd"/><g filter="url(#fx2)" transform="translate(796 111)"><g><path d="M14.5719 36.5723C14.5719 24.4218 24.4218 14.5719 36.5723 14.5719L181.572 14.5719C193.722 14.5719 203.572 24.4218 203.572 36.5723L203.572 124.571C203.572 136.722 193.722 146.572 181.572 146.572L36.5723 146.572C24.4218 146.572 14.5719 136.722 14.5719 124.571Z" fill="#BFBFBF" fill-rule="evenodd"/></g></g><path d="M820 157C820 144.85 829.85 135 842 135L987 135C999.15 135 1009 144.85 1009 157L1009 245C1009 257.15 999.15 267 987 267L842 267C829.85 267 820 257.15 820 245Z" fill="#BFBFBF" fill-rule="evenodd"/><g filter="url(#fx3)" transform="translate(813 128)"><g><path d="M21.1422 43.1425C21.1422 30.9921 30.9921 21.1421 43.1425 21.1421L188.142 21.1421C200.292 21.1421 210.142 30.9921 210.142 43.1425L210.142 131.142C210.142 143.292 200.292 153.142 188.142 153.142L43.1425 153.142C30.9921 153.142 21.1422 143.292 21.1422 131.142Z" fill="#FF0000" fill-rule="evenodd"/></g></g><path d="M820 157C820 144.85 829.85 135 842 135L987 135C999.15 135 1009 144.85 1009 157L1009 245C1009 257.15 999.15 267 987 267L842 267C829.85 267 820 257.15 820 245Z" fill="url(#fill19)" fill-rule="evenodd"/><g filter="url(#fx4)" transform="translate(1012 111)"><g><path d="M14.5719 36.5723C14.5719 24.4218 24.4218 14.5719 36.5723 14.5719L181.572 14.5719C193.722 14.5719 203.572 24.4218 203.572 36.5723L203.572 124.571C203.572 136.722 193.722 146.572 181.572 146.572L36.5723 146.572C24.4218 146.572 14.5719 136.722 14.5719 124.571Z" fill="#BFBFBF" fill-rule="evenodd"/></g></g><path d="M1036 157C1036 144.85 1045.85 135 1058 135L1203 135C1215.15 135 1225 144.85 1225 157L1225 245C1225 257.15 1215.15 267 1203 267L1058 267C1045.85 267 1036 257.15 1036 245Z" fill="#BFBFBF" fill-rule="evenodd"/><g filter="url(#fx5)" transform="translate(1029 128)"><g><path d="M21.1421 43.1425C21.1421 30.9921 30.992 21.1421 43.1425 21.1421L188.142 21.1421C200.292 21.1421 210.142 30.9921 210.142 43.1425L210.142 131.142C210.142 143.292 200.292 153.142 188.142 153.142L43.1425 153.142C30.992 153.142 21.1421 143.292 21.1421 131.142Z" fill="#FF0000" fill-rule="evenodd"/></g></g><path d="M1036 157C1036 144.85 1045.85 135 1058 135L1203 135C1215.15 135 1225 144.85 1225 157L1225 245C1225 257.15 1215.15 267 1203 267L1058 267C1045.85 267 1036 257.15 1036 245Z" fill="url(#fill20)" fill-rule="evenodd"/><g filter="url(#fx6)" transform="translate(579 298)"><g><path d="M14.5719 36.5723C14.5719 24.4218 24.4218 14.5719 36.5723 14.5719L181.572 14.5719C193.722 14.5719 203.572 24.4218 203.572 36.5723L203.572 124.571C203.572 136.722 193.722 146.572 181.572 146.572L36.5723 146.572C24.4218 146.572 14.5719 136.722 14.5719 124.571Z" fill="#BFBFBF" fill-rule="evenodd"/></g></g><path d="M603 344C603 331.85 612.85 322 625 322L770 322C782.15 322 792 331.85 792 344L792 432C792 444.15 782.15 454 770 454L625 454C612.85 454 603 444.15 603 432Z" fill="#BFBFBF" fill-rule="evenodd"/><g filter="url(#fx7)" transform="translate(596 315)"><g><path d="M21.1422 43.1426C21.1422 30.9921 30.9921 21.1422 43.1425 21.1422L188.142 21.1422C200.292 21.1422 210.142 30.9921 210.142 43.1426L210.142 131.142C210.142 143.292 200.292 153.142 188.142 153.142L43.1425 153.142C30.9921 153.142 21.1422 143.292 21.1422 131.142Z" fill="#FF0000" fill-rule="evenodd"/></g></g><path d="M603 344C603 331.85 612.85 322 625 322L770 322C782.15 322 792 331.85 792 344L792 432C792 444.15 782.15 454 770 454L625 454C612.85 454 603 444.15 603 432Z" fill="url(#fill21)" fill-rule="evenodd"/><g filter="url(#fx8)" transform="translate(796 298)"><g><path d="M14.5719 36.5723C14.5719 24.4218 24.4218 14.5719 36.5723 14.5719L181.572 14.5719C193.722 14.5719 203.572 24.4218 203.572 36.5723L203.572 124.571C203.572 136.722 193.722 146.572 181.572 146.572L36.5723 146.572C24.4218 146.572 14.5719 136.722 14.5719 124.571Z" fill="#BFBFBF" fill-rule="evenodd"/></g></g><path d="M820 344C820 331.85 829.85 322 842 322L987 322C999.15 322 1009 331.85 1009 344L1009 432C1009 444.15 999.15 454 987 454L842 454C829.85 454 820 444.15 820 432Z" fill="#BFBFBF" fill-rule="evenodd"/><g filter="url(#fx9)" transform="translate(813 315)"><g><path d="M21.1422 43.1426C21.1422 30.9921 30.9921 21.1422 43.1425 21.1422L188.142 21.1422C200.292 21.1422 210.142 30.9921 210.142 43.1426L210.142 131.142C210.142 143.292 200.292 153.142 188.142 153.142L43.1425 153.142C30.9921 153.142 21.1422 143.292 21.1422 131.142Z" fill="#FF0000" fill-rule="evenodd"/></g></g><path d="M820 344C820 331.85 829.85 322 842 322L987 322C999.15 322 1009 331.85 1009 344L1009 432C1009 444.15 999.15 454 987 454L842 454C829.85 454 820 444.15 820 432Z" fill="url(#fill22)" fill-rule="evenodd"/><g filter="url(#fx10)" transform="translate(1012 298)"><g><path d="M14.5719 36.5723C14.5719 24.4218 24.4218 14.5719 36.5723 14.5719L181.572 14.5719C193.722 14.5719 203.572 24.4218 203.572 36.5723L203.572 124.571C203.572 136.722 193.722 146.572 181.572 146.572L36.5723 146.572C24.4218 146.572 14.5719 136.722 14.5719 124.571Z" fill="#BFBFBF" fill-rule="evenodd"/></g></g><path d="M1036 344C1036 331.85 1045.85 322 1058 322L1203 322C1215.15 322 1225 331.85 1225 344L1225 432C1225 444.15 1215.15 454 1203 454L1058 454C1045.85 454 1036 444.15 1036 432Z" fill="#BFBFBF" fill-rule="evenodd"/><g filter="url(#fx11)" transform="translate(1029 315)"><g><path d="M21.1421 43.1426C21.1421 30.9921 30.992 21.1422 43.1425 21.1422L188.142 21.1422C200.292 21.1422 210.142 30.9921 210.142 43.1426L210.142 131.142C210.142 143.292 200.292 153.142 188.142 153.142L43.1425 153.142C30.992 153.142 21.1421 143.292 21.1421 131.142Z" fill="#FF0000" fill-rule="evenodd"/></g></g><path d="M1036 344C1036 331.85 1045.85 322 1058 322L1203 322C1215.15 322 1225 331.85 1225 344L1225 432C1225 444.15 1215.15 454 1203 454L1058 454C1045.85 454 1036 444.15 1036 432Z" fill="url(#fill23)" fill-rule="evenodd"/><g filter="url(#fx12)" transform="translate(579 484)"><g><path d="M14.5719 36.7389C14.5719 24.4964 24.4964 14.5719 36.7389 14.5719L181.405 14.5719C193.647 14.5719 203.572 24.4964 203.572 36.7389L203.572 125.405C203.572 137.647 193.647 147.572 181.405 147.572L36.7389 147.572C24.4964 147.572 14.5719 137.647 14.5719 125.405Z" fill="#BFBFBF" fill-rule="evenodd"/></g></g><path d="M603 530.167C603 517.924 612.924 508 625.167 508L769.833 508C782.076 508 792 517.924 792 530.167L792 618.833C792 631.076 782.076 641 769.833 641L625.167 641C612.924 641 603 631.076 603 618.833Z" fill="#BFBFBF" fill-rule="evenodd"/><g filter="url(#fx13)" transform="translate(596 501)"><g><path d="M21.1422 43.3092C21.1422 31.0667 31.0666 21.1422 43.3091 21.1422L187.975 21.1422C200.218 21.1422 210.142 31.0667 210.142 43.3092L210.142 131.975C210.142 144.218 200.218 154.142 187.975 154.142L43.3091 154.142C31.0666 154.142 21.1422 144.218 21.1422 131.975Z" fill="#FF0000" fill-rule="evenodd"/></g></g><path d="M603 530.167C603 517.924 612.924 508 625.167 508L769.833 508C782.076 508 792 517.924 792 530.167L792 618.833C792 631.076 782.076 641 769.833 641L625.167 641C612.924 641 603 631.076 603 618.833Z" fill="url(#fill24)" fill-rule="evenodd"/><g filter="url(#fx14)" transform="translate(796 484)"><g><path d="M14.5719 36.7389C14.5719 24.4964 24.4964 14.5719 36.7389 14.5719L181.405 14.5719C193.647 14.5719 203.572 24.4964 203.572 36.7389L203.572 125.405C203.572 137.647 193.647 147.572 181.405 147.572L36.7389 147.572C24.4964 147.572 14.5719 137.647 14.5719 125.405Z" fill="#BFBFBF" fill-rule="evenodd"/></g></g><path d="M820 530.167C820 517.924 829.924 508 842.167 508L986.833 508C999.076 508 1009 517.924 1009 530.167L1009 618.833C1009 631.076 999.076 641 986.833 641L842.167 641C829.924 641 820 631.076 820 618.833Z" fill="#BFBFBF" fill-rule="evenodd"/><g filter="url(#fx15)" transform="translate(813 501)"><g><path d="M21.1422 43.3092C21.1422 31.0667 31.0666 21.1422 43.3091 21.1422L187.975 21.1422C200.218 21.1422 210.142 31.0667 210.142 43.3092L210.142 131.975C210.142 144.218 200.218 154.142 187.975 154.142L43.3091 154.142C31.0666 154.142 21.1422 144.218 21.1422 131.975Z" fill="#FF0000" fill-rule="evenodd"/></g></g><path d="M820 530.167C820 517.924 829.924 508 842.167 508L986.833 508C999.076 508 1009 517.924 1009 530.167L1009 618.833C1009 631.076 999.076 641 986.833 641L842.167 641C829.924 641 820 631.076 820 618.833Z" fill="url(#fill25)" fill-rule="evenodd"/><g filter="url(#fx16)" transform="translate(1012 484)"><g><path d="M14.5719 36.7389C14.5719 24.4964 24.4964 14.5719 36.7389 14.5719L181.405 14.5719C193.647 14.5719 203.572 24.4964 203.572 36.7389L203.572 125.405C203.572 137.647 193.647 147.572 181.405 147.572L36.7389 147.572C24.4964 147.572 14.5719 137.647 14.5719 125.405Z" fill="#BFBFBF" fill-rule="evenodd"/></g></g><path d="M1036 530.167C1036 517.924 1045.92 508 1058.17 508L1202.83 508C1215.08 508 1225 517.924 1225 530.167L1225 618.833C1225 631.076 1215.08 641 1202.83 641L1058.17 641C1045.92 641 1036 631.076 1036 618.833Z" fill="#BFBFBF" fill-rule="evenodd"/><g filter="url(#fx17)" transform="translate(1029 501)"><g><path d="M21.1421 43.3092C21.1421 31.0667 31.0666 21.1422 43.3091 21.1422L187.975 21.1422C200.218 21.1422 210.142 31.0667 210.142 43.3092L210.142 131.975C210.142 144.218 200.218 154.142 187.975 154.142L43.3091 154.142C31.0666 154.142 21.1421 144.218 21.1421 131.975Z" fill="#FF0000" fill-rule="evenodd"/></g></g><path d="M1036 530.167C1036 517.924 1045.92 508 1058.17 508L1202.83 508C1215.08 508 1225 517.924 1225 530.167L1225 618.833C1225 631.076 1215.08 641 1202.83 641L1058.17 641C1045.92 641 1036 631.076 1036 618.833Z" fill="url(#fill26)" fill-rule="evenodd"/><text font-family="Abadi,Abadi_MSFontService,sans-serif" font-weight="400" font-size="19" transform="translate(652.431 115)">Revenue</text><text font-family="Abadi,Abadi_MSFontService,sans-serif" font-weight="400" font-size="19" transform="translate(817.2 115)">Cost of Goods Sold</text><text font-family="Abadi,Abadi_MSFontService,sans-serif" font-weight="400" font-size="19" transform="translate(1065.72 115)">Gross Profit</text><text font-family="Abadi,Abadi_MSFontService,sans-serif" font-weight="400" font-size="19" transform="translate(642 305)">Expenses</text><text font-family="Abadi,Abadi_MSFontService,sans-serif" font-weight="400" font-size="19" transform="translate(882.6 305)">EBIT</text><text font-family="Abadi,Abadi_MSFontService,sans-serif" font-weight="400" font-size="19" transform="translate(1065.72 305)">Finance Costs</text><text font-family="Abadi,Abadi_MSFontService,sans-serif" font-weight="400" font-size="19" transform="translate(603.6 495)">Net Income before Tax</text><text font-family="Abadi,Abadi_MSFontService,sans-serif" font-weight="400" font-size="19" transform="translate(894.074 495)">Tax</text><text font-family="Abadi,Abadi_MSFontService,sans-serif" font-weight="400" font-size="19" transform="translate(1065.72 495)">Net Income</text><text font-family="Abadi,Abadi_MSFontService,sans-serif" font-weight="400" font-size="19" transform="translate(142.8 381)">Net Income Margin</text><text font-family="Berlin Sans FB,Berlin Sans FB_MSFontService,sans-serif" font-weight="400" font-size="19" transform="translate(498 153)">Current</text><text fill="#BFBFBF" font-family="Berlin Sans FB,Berlin Sans FB_MSFontService,sans-serif" font-weight="400" font-size="19" transform="translate(498 190)">Previous</text><text font-family="Berlin Sans FB,Berlin Sans FB_MSFontService,sans-serif" font-weight="400" font-size="19" transform="translate(498 347)">Current</text><text fill="#BFBFBF" font-family="Berlin Sans FB,Berlin Sans FB_MSFontService,sans-serif" font-weight="400" font-size="19" transform="translate(498 384)">Previous</text><text font-family="Berlin Sans FB,Berlin Sans FB_MSFontService,sans-serif" font-weight="400" font-size="19" transform="translate(498 542)">Current</text><text fill="#BFBFBF" font-family="Berlin Sans FB,Berlin Sans FB_MSFontService,sans-serif" font-weight="400" font-size="19" transform="translate(498 579)">Previous</text><path d="M91.5001 397.5 381.9 397.5" stroke="#000000" stroke-width="0.666667" stroke-miterlimit="8" fill="none" fill-rule="evenodd"/></g></svg>